# Blender v2.70 (sub 0) OBJ File: ''
# www.blender.org
mtllib sphere.mtl
o Sphere
v -0.110311 1.216400 -0.621577
v -0.213528 1.053611 -0.688607
v -0.308653 0.789257 -0.750382
v -0.392031 0.433496 -0.804528
v -0.460458 0.000000 -0.848965
v -0.094420 1.216400 -0.641533
v -0.182356 1.053611 -0.727751
v -0.263398 0.789257 -0.807210
v -0.334432 0.433496 -0.876857
v -0.392728 0.000000 -0.934015
v -0.075014 1.216400 -0.658042
v -0.144289 1.053611 -0.760136
v -0.208134 0.789257 -0.854226
v -0.264094 0.433496 -0.936697
v -0.310020 0.000000 -1.004379
v -0.052839 1.216400 -0.670472
v -0.100792 1.053611 -0.784518
v -0.144986 0.789257 -0.889623
v -0.183722 0.433496 -0.981748
v -0.215512 0.000000 -1.057353
v -0.028748 1.216400 -0.678344
v -0.053535 1.053611 -0.799959
v -0.076380 0.789257 -0.912039
v -0.096404 0.433496 -1.010279
v -0.112836 0.000000 -1.090903
v -0.003666 1.216400 -0.681355
v -0.004336 1.053611 -0.805866
v -0.004953 0.789257 -0.920615
v -0.005494 0.433496 -1.021194
v -0.005939 0.000000 -1.103737
v 0.021443 1.216400 -0.679390
v 0.044916 1.053611 -0.802012
v 0.066550 0.789257 -0.915020
v 0.085512 0.433496 -1.014073
v 0.101073 0.000000 -1.095363
v 0.045613 1.216400 -0.672525
v 0.092328 1.053611 -0.788545
v 0.135381 0.789257 -0.895469
v 0.173118 0.433496 -0.989189
v 0.204087 0.000000 -1.066103
v 0.067917 1.216400 -0.661023
v 0.136078 1.053611 -0.765982
v 0.198896 0.789257 -0.862714
v 0.253957 0.433496 -0.947499
v 0.299144 0.000000 -1.017081
v 0.087496 1.216400 -0.645326
v 0.174484 1.053611 -0.735192
v 0.254653 0.789257 -0.818013
v 0.324922 0.433496 -0.890606
v 0.382590 0.000000 -0.950182
v 0.103599 1.216400 -0.626037
v 0.206071 1.053611 -0.697356
v 0.300510 0.789257 -0.763084
v 0.383287 0.433496 -0.820695
v 0.451220 0.000000 -0.867975
v 0.115606 1.216400 -0.603899
v 0.229625 1.053611 -0.653930
v 0.334705 0.789257 -0.700039
v 0.426808 0.433496 -0.740453
v 0.502395 0.000000 -0.773621
v 0.123057 1.216400 -0.579761
v 0.244240 1.053611 -0.606581
v 0.355922 0.789257 -0.631299
v 0.453813 0.433496 -0.652964
v 0.534150 0.000000 -0.670745
v 0.125664 1.216400 -0.554550
v 0.249355 1.053611 -0.557130
v 0.363348 0.789257 -0.559507
v 0.463264 0.433496 -0.561590
v 0.545263 0.000000 -0.563300
v 0.123329 1.216400 -0.529237
v 0.244773 1.053611 -0.507476
v 0.356697 0.789257 -0.487421
v 0.454798 0.433496 -0.469842
v 0.535308 0.000000 -0.455416
v 0.116139 1.216400 -0.504794
v 0.230671 1.053611 -0.459529
v 0.336223 0.789257 -0.417812
v 0.428741 0.433496 -0.381247
v 0.504668 0.000000 -0.351239
v 0.104373 1.216400 -0.482159
v 0.207590 1.053611 -0.415130
v 0.302715 0.789257 -0.353355
v 0.386093 0.433496 -0.299208
v 0.454519 0.000000 -0.254772
v 0.088481 1.216400 -0.462204
v 0.176417 1.053611 -0.375986
v 0.257459 0.789257 -0.296526
v 0.328493 0.433496 -0.226879
v 0.386789 0.000000 -0.169722
v 0.069075 1.216400 -0.445694
v 0.138351 1.053611 -0.343600
v 0.202195 0.789257 -0.249510
v 0.258156 0.433496 -0.167040
v 0.304081 0.000000 -0.099358
v 0.046900 1.216400 -0.433265
v 0.094854 1.053611 -0.319219
v 0.139047 0.789257 -0.214114
v 0.177784 0.433496 -0.121988
v 0.209573 0.000000 -0.046383
v 0.022809 1.216400 -0.425393
v 0.047597 1.053611 -0.303778
v 0.070442 0.789257 -0.191697
v 0.090465 0.433496 -0.093457
v 0.106898 -0.000000 -0.012834
v -0.002273 1.216400 -0.422382
v -0.001603 1.053611 -0.297871
v -0.000985 0.789257 -0.183121
v -0.000444 0.433496 -0.082543
v 0.000000 0.000000 0.000000
v -0.027381 1.216400 -0.424346
v -0.050855 1.053611 -0.301725
v -0.072488 0.789257 -0.188717
v -0.091450 0.433496 -0.089664
v -0.107012 0.000000 -0.008374
v -0.051552 1.216400 -0.431212
v -0.098267 1.053611 -0.315192
v -0.141320 0.789257 -0.208268
v -0.179056 0.433496 -0.114548
v -0.210025 0.000000 -0.037634
v -0.073855 1.216400 -0.442714
v -0.142016 1.053611 -0.337754
v -0.204835 0.789257 -0.241023
v -0.259895 0.433496 -0.156237
v -0.305082 0.000000 -0.086655
v -0.093434 1.216400 -0.458411
v -0.180423 1.053611 -0.368545
v -0.260592 0.789257 -0.285724
v -0.330861 0.433496 -0.213131
v -0.388528 0.000000 -0.153555
v -0.109537 1.216400 -0.477699
v -0.212009 1.053611 -0.406380
v -0.306449 0.789257 -0.340652
v -0.389225 0.433496 -0.283042
v -0.457158 0.000000 -0.235762
v -0.121545 1.216400 -0.499838
v -0.235563 1.053611 -0.449807
v -0.340643 0.789257 -0.403698
v -0.432747 0.433496 -0.363283
v -0.508334 0.000000 -0.330116
v -0.128995 1.216400 -0.523976
v -0.250178 1.053611 -0.497156
v -0.361861 0.789257 -0.472438
v -0.459752 0.433496 -0.450772
v -0.540088 0.000000 -0.432992
v -0.131603 1.216400 -0.549186
v -0.255293 1.053611 -0.546607
v -0.369286 0.789257 -0.544230
v -0.469203 0.433496 -0.542146
v -0.551202 0.000000 -0.540437
v -0.002969 1.271367 -0.551868
v -0.129267 1.216400 -0.574499
v -0.250711 1.053611 -0.596260
v -0.362635 0.789257 -0.616315
v -0.460737 0.433496 -0.633894
v -0.541247 0.000000 -0.648320
v -0.122078 1.216400 -0.598943
v -0.236609 1.053611 -0.644208
v -0.342161 0.789257 -0.685924
v -0.434679 0.433496 -0.722489
v -0.510606 0.000000 -0.752497
vn -0.753648 0.267974 -0.600170
vn -0.625055 0.601279 -0.497765
vn -0.768883 0.184132 -0.612303
vn -0.719403 0.392745 -0.572897
vn -0.636876 0.184352 -0.748601
vn -0.595801 0.393155 -0.700321
vn -0.624227 0.268280 -0.733735
vn -0.517536 0.601750 -0.608321
vn -0.480537 0.184758 -0.857291
vn -0.449423 0.393914 -0.801780
vn -0.470951 0.268850 -0.840193
vn -0.390197 0.602628 -0.696122
vn -0.305211 0.185294 -0.934084
vn -0.285341 0.394913 -0.873284
vn -0.299088 0.269598 -0.915349
vn -0.247586 0.603778 -0.757729
vn -0.117126 0.185880 -0.975567
vn -0.109457 0.396003 -0.911702
vn -0.114764 0.270416 -0.955879
vn -0.094912 0.605031 -0.790525
vn 0.076646 0.186425 -0.979475
vn 0.071598 0.397017 -0.915014
vn 0.075090 0.271178 -0.959596
vn 0.062047 0.606196 -0.792891
vn 0.268416 0.186846 -0.945009
vn 0.250681 0.397799 -0.882562
vn 0.262948 0.271766 -0.925744
vn 0.217116 0.607093 -0.764394
vn 0.450260 0.187075 -0.873080
vn 0.420439 0.398225 -0.815260
vn 0.441058 0.272084 -0.855241
vn 0.364054 0.607578 -0.705913
vn 0.614463 0.187075 -0.766445
vn 0.573770 0.398225 -0.715685
vn 0.601908 0.272085 -0.750784
vn 0.496812 0.607580 -0.619697
vn 0.754130 0.186847 -0.629584
vn 0.704296 0.397799 -0.587982
vn 0.738759 0.271765 -0.616749
vn 0.610000 0.607090 -0.509256
vn 0.863622 0.186425 -0.468405
vn 0.806786 0.397017 -0.437578
vn 0.846093 0.271178 -0.458900
vn 0.699105 0.606198 -0.379178
vn 0.938864 0.185879 -0.289797
vn 0.877403 0.396003 -0.270826
vn 0.919918 0.270415 -0.283948
vn 0.760785 0.605031 -0.234828
vn 0.977468 0.185294 -0.101103
vn 0.913843 0.394913 -0.094523
vn 0.957863 0.269598 -0.099076
vn 0.792922 0.603778 -0.082016
vn 0.978627 0.184759 0.090302
vn 0.915259 0.393914 0.084455
vn 0.959108 0.268849 0.088501
vn 0.794646 0.602629 0.073323
vn 0.942922 0.184351 0.277332
vn 0.882110 0.393155 0.259445
vn 0.924196 0.268280 0.271824
vn 0.766231 0.601750 0.225361
vn 0.872099 0.184132 0.453364
vn 0.815975 0.392746 0.424188
vn 0.854819 0.267974 0.444381
vn 0.708963 0.601278 0.368560
vn 0.768883 0.184132 0.612303
vn 0.719401 0.392746 0.572898
vn 0.753648 0.267974 0.600170
vn 0.625057 0.601278 0.497764
vn 0.636876 0.184351 0.748601
vn 0.595801 0.393155 0.700321
vn 0.624228 0.268280 0.733734
vn 0.517533 0.601752 0.608321
vn 0.480538 0.184758 0.857291
vn 0.449422 0.393914 0.801780
vn 0.470954 0.268849 0.840192
vn 0.390198 0.602627 0.696123
vn 0.305210 0.185294 0.934084
vn 0.285342 0.394913 0.873283
vn 0.299088 0.269598 0.915349
vn 0.247584 0.603778 0.757729
vn 0.117127 0.185879 0.975567
vn 0.109459 0.396003 0.911702
vn 0.114764 0.270416 0.955879
vn 0.094911 0.605031 0.790525
vn -0.076645 0.186425 0.979475
vn -0.071600 0.397018 0.915014
vn -0.075089 0.271178 0.959596
vn -0.062041 0.606195 0.792893
vn -0.268419 0.186846 0.945008
vn -0.250681 0.397800 0.882561
vn -0.262948 0.271765 0.925744
vn -0.217121 0.607091 0.764394
vn -0.450258 0.187075 0.873081
vn -0.420439 0.398225 0.815260
vn -0.441058 0.272085 0.855242
vn -0.364049 0.607576 0.705917
vn -0.614463 0.187075 0.766445
vn -0.573769 0.398225 0.715686
vn -0.601908 0.272085 0.750784
vn -0.496816 0.607577 0.619696
vn -0.754132 0.186846 0.629582
vn -0.704299 0.397799 0.587979
vn -0.738759 0.271766 0.616749
vn -0.610001 0.607091 0.509254
vn -0.863621 0.186425 0.468407
vn -0.806784 0.397017 0.437581
vn -0.846093 0.271178 0.458900
vn -0.699107 0.606196 0.379179
vn -0.938865 0.185879 0.289797
vn -0.877403 0.396002 0.270825
vn -0.919917 0.270416 0.283949
vn -0.760784 0.605032 0.234829
vn -0.977468 0.185294 0.101103
vn -0.913843 0.394913 0.094522
vn -0.957862 0.269599 0.099076
vn -0.792923 0.603778 0.082013
vn -0.978627 0.184758 -0.090302
vn -0.915259 0.393914 -0.084455
vn -0.959108 0.268849 -0.088500
vn -0.794647 0.602627 -0.073325
vn -0.942922 0.184351 -0.277333
vn -0.882109 0.393157 -0.259446
vn -0.924195 0.268280 -0.271825
vn -0.766231 0.601750 -0.225361
vn -0.309906 0.918179 -0.246791
vn -0.256443 0.918356 -0.301427
vn -0.193134 0.918683 -0.344558
vn -0.122369 0.919113 -0.374508
vn -0.046838 0.919578 -0.390107
vn 0.030575 0.920008 -0.390706
vn 0.106867 0.920337 -0.376244
vn 0.179081 0.920516 -0.347246
vn 0.244386 0.920516 -0.304837
vn 0.300248 0.920337 -0.250662
vn 0.344495 0.920008 -0.186841
vn 0.375429 0.919578 -0.115884
vn 0.391904 0.919113 -0.040533
vn 0.393323 0.918684 0.036293
vn 0.379672 0.918356 0.111671
vn 0.351507 0.918179 0.182731
vn 0.309902 0.918179 0.246795
vn 0.256444 0.918356 0.301427
vn 0.193133 0.918684 0.344556
vn 0.122370 0.919111 0.374513
vn 0.046836 0.919578 0.390107
vn -0.030572 0.920008 0.390706
vn -0.106869 0.920337 0.376243
vn -0.179079 0.920516 0.347248
vn -0.244390 0.920516 0.304834
vn -0.300249 0.920336 0.250663
vn -0.344494 0.920008 0.186841
vn -0.375431 0.919578 0.115876
vn -0.391906 0.919112 0.040541
vn -0.393323 0.918683 -0.036302
vn -0.379675 0.918356 -0.111663
vn -0.872101 0.184131 -0.453360
vn -0.815978 0.392745 -0.424182
vn -0.351506 0.918179 -0.182731
vn -0.854821 0.267974 -0.444376
vn -0.708966 0.601278 -0.368554
vn -0.753648 0.267974 -0.600171
vn -0.625056 0.601279 -0.497763
vn -0.768882 0.184132 -0.612304
vn -0.719401 0.392746 -0.572898
vn -0.636876 0.184351 -0.748601
vn -0.624229 0.268280 -0.733733
vn -0.517532 0.601751 -0.608322
vn -0.480538 0.184758 -0.857291
vn -0.449421 0.393914 -0.801781
vn -0.470954 0.268849 -0.840192
vn -0.390198 0.602627 -0.696122
vn -0.305210 0.185294 -0.934084
vn -0.285344 0.394912 -0.873283
vn -0.247584 0.603779 -0.757729
vn -0.109460 0.396002 -0.911702
vn -0.094910 0.605031 -0.790525
vn 0.076644 0.186425 -0.979475
vn 0.071600 0.397017 -0.915014
vn 0.075088 0.271178 -0.959596
vn 0.062042 0.606196 -0.792892
vn 0.268421 0.186846 -0.945007
vn 0.250684 0.397799 -0.882561
vn 0.262948 0.271765 -0.925744
vn 0.217120 0.607091 -0.764395
vn 0.450257 0.187075 -0.873081
vn 0.420437 0.398224 -0.815261
vn 0.441058 0.272085 -0.855241
vn 0.364048 0.607578 -0.705916
vn 0.601907 0.272085 -0.750785
vn 0.496815 0.607579 -0.619696
vn 0.754133 0.186846 -0.629581
vn 0.704298 0.397799 -0.587980
vn 0.738757 0.271766 -0.616751
vn 0.609998 0.607092 -0.509256
vn 0.863620 0.186425 -0.468408
vn 0.806784 0.397017 -0.437581
vn 0.846093 0.271177 -0.458900
vn 0.699108 0.606195 -0.379178
vn 0.877403 0.396002 -0.270825
vn 0.919917 0.270416 -0.283949
vn 0.760784 0.605031 -0.234829
vn 0.957863 0.269598 -0.099075
vn 0.792922 0.603779 -0.082011
vn 0.978627 0.184758 0.090302
vn 0.794647 0.602628 0.073326
vn 0.882109 0.393155 0.259446
vn 0.766229 0.601751 0.225364
vn 0.854819 0.267974 0.444380
vn 0.708965 0.601279 0.368555
vn 0.768883 0.184132 0.612302
vn 0.719402 0.392746 0.572898
vn 0.753648 0.267974 0.600171
vn 0.625055 0.601279 0.497765
vn 0.636876 0.184351 0.748602
vn 0.517532 0.601751 0.608322
vn 0.470953 0.268849 0.840192
vn 0.390198 0.602627 0.696122
vn 0.305209 0.185294 0.934084
vn 0.285343 0.394913 0.873283
vn 0.247586 0.603778 0.757729
vn 0.109460 0.396003 0.911702
vn 0.114764 0.270415 0.955879
vn -0.071601 0.397018 0.915014
vn -0.062045 0.606195 0.792892
vn -0.268420 0.186846 0.945008
vn -0.250682 0.397799 0.882561
vn -0.217119 0.607091 0.764395
vn -0.441058 0.272085 0.855241
vn -0.364047 0.607579 0.705916
vn -0.614464 0.187075 0.766445
vn -0.573769 0.398224 0.715686
vn -0.496814 0.607578 0.619697
vn -0.704298 0.397800 0.587979
vn -0.738759 0.271765 0.616748
vn -0.610000 0.607092 0.509254
vn -0.806785 0.397017 0.437580
vn -0.846093 0.271178 0.458901
vn -0.699107 0.606195 0.379180
vn -0.938864 0.185879 0.289798
vn -0.877403 0.396002 0.270826
vn -0.919918 0.270415 0.283949
vn -0.760785 0.605030 0.234828
vn -0.913843 0.394913 0.094523
vn -0.957863 0.269598 0.099075
vn -0.792923 0.603777 0.082017
vn -0.915259 0.393914 -0.084454
vn -0.959108 0.268849 -0.088501
vn -0.794646 0.602628 -0.073326
vn -0.882109 0.393155 -0.259447
vn -0.766229 0.601751 -0.225364
vn -0.872101 0.184132 -0.453359
vn -0.815977 0.392746 -0.424184
vn -0.854820 0.267974 -0.444378
vn -0.708966 0.601279 -0.368553
usemtl None
s off
f 3//1 8//1 9//1
f 1//2 6//2 7//2
f 4//3 9//3 10//3
f 2//4 7//4 8//4
f 9//5 14//5 15//5
f 7//6 12//6 13//6
f 8//7 13//7 14//7
f 6//8 11//8 12//8
f 14//9 19//9 20//9
f 12//10 17//10 18//10
f 13//11 18//11 19//11
f 11//12 16//12 17//12
f 19//13 24//13 25//13
f 17//14 22//14 23//14
f 18//15 23//15 24//15
f 16//16 21//16 22//16
f 24//17 29//17 30//17
f 22//18 27//18 28//18
f 23//19 28//19 29//19
f 21//20 26//20 27//20
f 29//21 34//21 35//21
f 27//22 32//22 33//22
f 28//23 33//23 34//23
f 26//24 31//24 32//24
f 34//25 39//25 40//25
f 32//26 37//26 38//26
f 33//27 38//27 39//27
f 31//28 36//28 37//28
f 39//29 44//29 45//29
f 37//30 42//30 43//30
f 38//31 43//31 44//31
f 36//32 41//32 42//32
f 45//33 44//33 49//33
f 43//34 42//34 47//34
f 44//35 43//35 48//35
f 42//36 41//36 46//36
f 50//37 49//37 54//37
f 48//38 47//38 52//38
f 49//39 48//39 53//39
f 47//40 46//40 51//40
f 55//41 54//41 59//41
f 53//42 52//42 57//42
f 54//43 53//43 58//43
f 52//44 51//44 56//44
f 60//45 59//45 64//45
f 58//46 57//46 62//46
f 59//47 58//47 63//47
f 57//48 56//48 61//48
f 65//49 64//49 69//49
f 63//50 62//50 67//50
f 64//51 63//51 68//51
f 62//52 61//52 66//52
f 70//53 69//53 74//53
f 68//54 67//54 72//54
f 69//55 68//55 73//55
f 67//56 66//56 71//56
f 75//57 74//57 79//57
f 73//58 72//58 77//58
f 74//59 73//59 78//59
f 72//60 71//60 76//60
f 80//61 79//61 84//61
f 78//62 77//62 82//62
f 79//63 78//63 83//63
f 77//64 76//64 81//64
f 84//65 89//65 90//65
f 82//66 87//66 88//66
f 83//67 88//67 89//67
f 81//68 86//68 87//68
f 89//69 94//69 95//69
f 87//70 92//70 93//70
f 88//71 93//71 94//71
f 86//72 91//72 92//72
f 94//73 99//73 100//73
f 92//74 97//74 98//74
f 93//75 98//75 99//75
f 91//76 96//76 97//76
f 99//77 104//77 105//77
f 97//78 102//78 103//78
f 98//79 103//79 104//79
f 96//80 101//80 102//80
f 104//81 109//81 110//81
f 102//82 107//82 108//82
f 103//83 108//83 109//83
f 101//84 106//84 107//84
f 109//85 114//85 115//85
f 107//86 112//86 113//86
f 108//87 113//87 114//87
f 106//88 111//88 112//88
f 114//89 119//89 120//89
f 112//90 117//90 118//90
f 113//91 118//91 119//91
f 111//92 116//92 117//92
f 119//93 124//93 125//93
f 117//94 122//94 123//94
f 118//95 123//95 124//95
f 116//96 121//96 122//96
f 125//97 124//97 129//97
f 123//98 122//98 127//98
f 124//99 123//99 128//99
f 122//100 121//100 126//100
f 130//101 129//101 134//101
f 128//102 127//102 132//102
f 129//103 128//103 133//103
f 127//104 126//104 131//104
f 135//105 134//105 139//105
f 133//106 132//106 137//106
f 134//107 133//107 138//107
f 132//108 131//108 136//108
f 140//109 139//109 144//109
f 138//110 137//110 142//110
f 139//111 138//111 143//111
f 137//112 136//112 141//112
f 145//113 144//113 149//113
f 143//114 142//114 147//114
f 144//115 143//115 148//115
f 142//116 141//116 146//116
f 150//117 149//117 155//117
f 148//118 147//118 153//118
f 149//119 148//119 154//119
f 147//120 146//120 152//120
f 156//121 155//121 160//121
f 154//122 153//122 158//122
f 155//123 154//123 159//123
f 153//124 152//124 157//124
f 1//125 151//125 6//125
f 6//126 151//126 11//126
f 11//127 151//127 16//127
f 16//128 151//128 21//128
f 21//129 151//129 26//129
f 26//130 151//130 31//130
f 31//131 151//131 36//131
f 36//132 151//132 41//132
f 41//133 151//133 46//133
f 46//134 151//134 51//134
f 51//135 151//135 56//135
f 56//136 151//136 61//136
f 61//137 151//137 66//137
f 66//138 151//138 71//138
f 71//139 151//139 76//139
f 76//140 151//140 81//140
f 81//141 151//141 86//141
f 86//142 151//142 91//142
f 91//143 151//143 96//143
f 96//144 151//144 101//144
f 101//145 151//145 106//145
f 106//146 151//146 111//146
f 111//147 151//147 116//147
f 116//148 151//148 121//148
f 121//149 151//149 126//149
f 126//150 151//150 131//150
f 131//151 151//151 136//151
f 136//152 151//152 141//152
f 141//153 151//153 146//153
f 146//154 151//154 152//154
f 152//155 151//155 157//155
f 161//156 160//156 4//156
f 159//157 158//157 2//157
f 157//158 151//158 1//158
f 160//159 159//159 3//159
f 158//160 157//160 1//160
f 4//161 3//161 9//161
f 2//162 1//162 7//162
f 5//163 4//163 10//163
f 3//164 2//164 8//164
f 10//165 9//165 15//165
f 8//6 7//6 13//6
f 9//166 8//166 14//166
f 7//167 6//167 12//167
f 15//168 14//168 20//168
f 13//169 12//169 18//169
f 14//170 13//170 19//170
f 12//171 11//171 17//171
f 20//172 19//172 25//172
f 18//173 17//173 23//173
f 19//15 18//15 24//15
f 17//174 16//174 22//174
f 25//17 24//17 30//17
f 23//175 22//175 28//175
f 24//19 23//19 29//19
f 22//176 21//176 27//176
f 30//177 29//177 35//177
f 28//178 27//178 33//178
f 29//179 28//179 34//179
f 27//180 26//180 32//180
f 35//181 34//181 40//181
f 33//182 32//182 38//182
f 34//183 33//183 39//183
f 32//184 31//184 37//184
f 40//185 39//185 45//185
f 38//186 37//186 43//186
f 39//187 38//187 44//187
f 37//188 36//188 42//188
f 50//33 45//33 49//33
f 48//34 43//34 47//34
f 49//189 44//189 48//189
f 47//190 42//190 46//190
f 55//191 50//191 54//191
f 53//192 48//192 52//192
f 54//193 49//193 53//193
f 52//194 47//194 51//194
f 60//195 55//195 59//195
f 58//196 53//196 57//196
f 59//197 54//197 58//197
f 57//198 52//198 56//198
f 65//45 60//45 64//45
f 63//199 58//199 62//199
f 64//200 59//200 63//200
f 62//201 57//201 61//201
f 70//49 65//49 69//49
f 68//50 63//50 67//50
f 69//202 64//202 68//202
f 67//203 62//203 66//203
f 75//204 70//204 74//204
f 73//54 68//54 72//54
f 74//55 69//55 73//55
f 72//205 67//205 71//205
f 80//57 75//57 79//57
f 78//206 73//206 77//206
f 79//59 74//59 78//59
f 77//207 72//207 76//207
f 85//61 80//61 84//61
f 83//62 78//62 82//62
f 84//208 79//208 83//208
f 82//209 77//209 81//209
f 85//210 84//210 90//210
f 83//211 82//211 88//211
f 84//212 83//212 89//212
f 82//213 81//213 87//213
f 90//214 89//214 95//214
f 88//70 87//70 93//70
f 89//71 88//71 94//71
f 87//215 86//215 92//215
f 95//73 94//73 100//73
f 93//74 92//74 98//74
f 94//216 93//216 99//216
f 92//217 91//217 97//217
f 100//218 99//218 105//218
f 98//219 97//219 103//219
f 99//79 98//79 104//79
f 97//220 96//220 102//220
f 105//81 104//81 110//81
f 103//221 102//221 108//221
f 104//222 103//222 109//222
f 102//84 101//84 107//84
f 110//85 109//85 115//85
f 108//223 107//223 113//223
f 109//87 108//87 114//87
f 107//224 106//224 112//224
f 115//225 114//225 120//225
f 113//226 112//226 118//226
f 114//91 113//91 119//91
f 112//227 111//227 117//227
f 120//93 119//93 125//93
f 118//94 117//94 123//94
f 119//228 118//228 124//228
f 117//229 116//229 122//229
f 130//230 125//230 129//230
f 128//231 123//231 127//231
f 129//99 124//99 128//99
f 127//232 122//232 126//232
f 135//101 130//101 134//101
f 133//233 128//233 132//233
f 134//234 129//234 133//234
f 132//235 127//235 131//235
f 140//105 135//105 139//105
f 138//236 133//236 137//236
f 139//237 134//237 138//237
f 137//238 132//238 136//238
f 145//239 140//239 144//239
f 143//240 138//240 142//240
f 144//241 139//241 143//241
f 142//242 137//242 141//242
f 150//113 145//113 149//113
f 148//243 143//243 147//243
f 149//244 144//244 148//244
f 147//245 142//245 146//245
f 156//117 150//117 155//117
f 154//246 148//246 153//246
f 155//247 149//247 154//247
f 153//248 147//248 152//248
f 161//121 156//121 160//121
f 159//249 154//249 158//249
f 160//123 155//123 159//123
f 158//250 153//250 157//250
f 5//251 161//251 4//251
f 3//252 159//252 2//252
f 4//253 160//253 3//253
f 2//254 158//254 1//254
